<?xml version="1.0" encoding="iso-8859-1"?>
<!-- Generator: Adobe Illustrator 19.0.0, SVG Export Plug-In . SVG Version: 6.00 Build 0)  -->
<svg version="1.1" id="Layer_1" xmlns="http://www.w3.org/2000/svg" xmlns:xlink="http://www.w3.org/1999/xlink" x="0px" y="0px"
	 viewBox="0 0 511.996 511.996" style="enable-background:new 0 0 511.996 511.996;" xml:space="preserve">
<g transform="translate(-1)">
	<path style="fill:#F9D70B;" d="M267.687,445.253l-2.586,7.759c-1.73,5.182-6.462,8.916-11.926,8.854
		c-50.706-0.512-307.836-27.339-241.231-299.714c4.326-17.708,13.895-34.225,30.579-41.56c7.345-3.222,15.951-4.979,25.556-3.407
		c0,0,15.996-20.409,17.655-61.793c0,0,29.749-2.074,38.85,26.889c0,0-30.755,22.766-30.023,52.559c0,0,0.644,28.222-8.828,44.138
		c-12.058,20.25-44.2,131.822,175.801,250.809C267.051,432.771,269.673,439.303,267.687,445.253"/>
	<path style="fill:#B58C30;" d="M159.895,55.801c0,0-29.767,47.651-14.257,73.092c0,0,14.513,23.146,14.257,41.666
		c-0.335,23.57,27.692,137.26,277.716,130.463c0.185,0,0.353,0.079,0.538,0.079c34.339-17.823,59.604-39.733,70.85-50.379
		c3.964-3.752,5.085-9.569,2.887-14.566l-3.293-7.486c-2.525-5.738-8.854-8.828-14.945-7.336
		c-242.926,59.542-293.782-45.33-298.443-68.431c-3.663-18.158-23.322-38.029-23.322-38.029
		C151.332,93.283,159.895,55.801,159.895,55.801"/>
	<path style="fill:#F9D70B;" d="M452.297,319.365l-1.633-8.015c-1.254-6.144-6.788-10.496-13.056-10.328
		c-250.024,6.797-278.042-106.893-277.716-130.463c0.265-18.52-14.248-41.666-14.248-41.666
		C130.125,103.451,159.892,55.8,159.892,55.8c-13.983-12.853-40.616-0.388-51.112,3.566l0,0l2.569,3.716
		c5.411,3.999,10.355,10.046,13.233,19.2c-6.047,10.187-14.195,30.058-12.615,45.444c0.141,1.386,1.289,7.142,1.801,8.625
		c0,0,9.207,26.686,5.023,44.729c-5.332,22.961-2.013,139.026,243.756,185.45c0.989,0.185,1.854,0.644,2.745,1.042
		c37.897-10.134,67.716-26.465,81.099-34.578C451.061,330.161,453.392,324.715,452.297,319.365"/>
	<path style="fill:#B58C30;" d="M362.549,366.53C116.78,320.106,113.461,204.041,118.784,181.08
		c4.193-18.044-5.014-44.729-5.014-44.729c-6.197-17.867,3.61-41.958,10.814-54.069c0,0-30.755,22.766-30.023,52.559
		c0,0,0.644,28.222-8.828,44.138C74.187,198.373,44.367,301.55,235.149,414.764c57.079,6.727,109.277-8.28,129.201-15.13
		c5.155-1.774,8.589-6.603,8.66-12.058l0.106-8.183C373.195,373.124,368.71,367.695,362.549,366.53"/>
	<path style="fill:#F9D70B;" d="M488.573,268.296c8.872-7.018,15.854-13.241,20.427-17.576c3.964-3.752,5.085-9.569,2.887-14.566
		l-3.293-7.486c-2.525-5.738-8.854-8.828-14.945-7.336c-8.942,2.198-17.54,4.096-25.971,5.862L488.573,268.296z"/>
	<path style="fill:#B58C30;" d="M414.106,349.93c14.292-6.506,25.45-12.791,32.282-16.94c4.67-2.825,7-8.28,5.906-13.621
		l-1.633-8.015c-1.254-6.144-6.788-10.496-13.056-10.328c-11.732,0.318-22.819,0.291-33.598,0.106L414.106,349.93z"/>
	<path style="fill:#F9D70B;" d="M362.549,366.53c-9.057-1.713-17.69-3.549-26.103-5.438v46.583
		c11.961-2.869,21.575-5.862,27.904-8.042c5.155-1.774,8.589-6.603,8.66-12.058l0.106-8.183
		C373.195,373.124,368.71,367.695,362.549,366.53"/>
	<g>
		<path style="fill:#B58C30;" d="M261.535,429.786c-9.313-5.041-18.017-10.055-26.447-15.06l-16.543,44.42
			c14.927,1.96,27.092,2.648,34.631,2.719c5.455,0.062,10.196-3.672,11.926-8.854l2.586-7.759
			C269.665,439.302,267.052,432.77,261.535,429.786"/>
		<path style="fill:#B58C30;" d="M62.791,302.973c0,4.873-3.955,8.828-8.828,8.828s-8.828-3.955-8.828-8.828
			s3.955-8.828,8.828-8.828S62.791,298.1,62.791,302.973"/>
		<path style="fill:#B58C30;" d="M62.791,152.904c0,4.873-3.955,8.828-8.828,8.828s-8.828-3.955-8.828-8.828
			s3.955-8.828,8.828-8.828S62.791,148.031,62.791,152.904"/>
		<path style="fill:#B58C30;" d="M45.136,197.042c0,4.873-3.955,8.828-8.828,8.828s-8.828-3.955-8.828-8.828
			c0-4.873,3.955-8.828,8.828-8.828S45.136,192.169,45.136,197.042"/>
		<path style="fill:#B58C30;" d="M53.964,232.353c0,4.873-3.955,8.828-8.828,8.828s-8.828-3.955-8.828-8.828
			c0-4.873,3.955-8.828,8.828-8.828S53.964,227.48,53.964,232.353"/>
		<path style="fill:#B58C30;" d="M71.619,338.284c0,4.873-3.955,8.828-8.828,8.828s-8.828-3.955-8.828-8.828
			c0-4.873,3.955-8.828,8.828-8.828S71.619,333.411,71.619,338.284"/>
		<path style="fill:#B58C30;" d="M106.929,347.111c0,4.873-3.955,8.828-8.828,8.828c-4.873,0-8.828-3.955-8.828-8.828
			c0-4.873,3.955-8.828,8.828-8.828C102.974,338.284,106.929,342.238,106.929,347.111"/>
		<path style="fill:#B58C30;" d="M106.929,382.421c0,4.873-3.955,8.828-8.828,8.828c-4.873,0-8.828-3.955-8.828-8.828
			s3.955-8.828,8.828-8.828C102.974,373.594,106.929,377.549,106.929,382.421"/>
	</g>
</g>
<g>
</g>
<g>
</g>
<g>
</g>
<g>
</g>
<g>
</g>
<g>
</g>
<g>
</g>
<g>
</g>
<g>
</g>
<g>
</g>
<g>
</g>
<g>
</g>
<g>
</g>
<g>
</g>
<g>
</g>
</svg>
